# xmcd
# 
# Track frame offsets:
#     150
#     15605
#     27095
#     39305
#     52770
#     66817
#     79937
#     91992
#     104842
#     117687
#     130967
#     143097
#     157497
#     170395
#     182740
#     195992
# 
# Disc length: 2828
# 
# Revision: 3
# Processed by: cddbd v1.5.2PL0 Copyright (c) Steve Scherf et al.
# Submitted via: BonkEnc v1.0.8
# 
DISCID=da0b0a10
DTITLE=Muddy Waters - Martin Scorsese Presents The Blues
DYEAR=2003
DGENRE=Blues
TTITLE0=Country Blues, Number One
TTITLE1=Burying Ground Blues
TTITLE2=I Can't Be Satisfied
TTITLE3=Rollin' and Tumblin', Part One
TTITLE4=Rollin' Stone
TTITLE5=Louisiana Blues
TTITLE6=Long Distance Call
TTITLE7=(I'm Your) Hoochie Coochie Man (Willie Dixon)
TTITLE8=I Just Want To Make Love To You (Willie Dixon)
TTITLE9=Mannish Boy (McKinley Morganfield - Met London - Elias McDaniel)
TTITLE10=Trouble No More
TTITLE11=Rock Me
TTITLE12=Got My Mojo Working (Preston Foster)
TTITLE13=You Shook Me (Willie Dixon - J.B. Lenoir)
TTITLE14=You Can't Lose What You Ain't Never Had
TTITLE15=The Blues Had A Baby And They Named It Rock And Roll  (McKinley Morganfield - Brownie McGhee)
EXTD=Muddy Waters (McKinley Morganfield]\n ID3G:   0 YEAR: 2003
EXTT0=
EXTT1=
EXTT2=
EXTT3=
EXTT4=
EXTT5=
EXTT6=
EXTT7=
EXTT8=
EXTT9=
EXTT10=
EXTT11=
EXTT12=
EXTT13=
EXTT14=
EXTT15=
PLAYORDER=
